<?xml version="1.0" encoding="UTF-8"?>
<!--Generator: Apple Native CoreSVG 232.5-->
<!DOCTYPE svg
PUBLIC "-//W3C//DTD SVG 1.1//EN"
       "http://www.w3.org/Graphics/SVG/1.1/DTD/svg11.dtd">
<svg version="1.1" xmlns="http://www.w3.org/2000/svg" xmlns:xlink="http://www.w3.org/1999/xlink" width="165.476" height="106.532">
 <g>
  <rect height="106.532" opacity="0" width="165.476" x="0" y="0"/>
  <path d="M21.8892 106.358L143.612 106.358C157.806 106.358 165.476 98.688 165.476 84.5933L165.476 21.7646C165.476 7.64502 157.806 0 143.612 0L21.8892 0C7.64502 0 0 7.62012 0 21.7646L0 84.5933C0 98.7129 7.64502 106.358 21.8892 106.358ZM23.3584 91.6406C17.7305 91.6406 14.7422 88.8018 14.7422 82.9248L14.7422 23.4331C14.7422 17.5562 17.7305 14.7422 23.3584 14.7422L142.118 14.7422C147.696 14.7422 150.759 17.5562 150.759 23.4331L150.759 82.9248C150.759 88.8018 147.696 91.6406 142.118 91.6406ZM29.9575 39.022L35.8096 39.022C37.752 39.022 38.8975 37.8765 38.8975 35.9092L38.8975 30.0571C38.8975 28.0898 37.752 26.9194 35.8096 26.9194L29.9575 26.9194C28.0151 26.9194 26.8447 28.0898 26.8447 30.0571L26.8447 35.9092C26.8447 37.8765 28.0151 39.022 29.9575 39.022ZM49.8545 39.022L55.6816 39.022C57.6489 39.022 58.8193 37.8765 58.8193 35.9092L58.8193 30.0571C58.8193 28.0898 57.6489 26.9194 55.6816 26.9194L49.8545 26.9194C47.8872 26.9194 46.7417 28.0898 46.7417 30.0571L46.7417 35.9092C46.7417 37.8765 47.8872 39.022 49.8545 39.022ZM69.7515 39.022L75.5786 39.022C77.5459 39.022 78.7163 37.8765 78.7163 35.9092L78.7163 30.0571C78.7163 28.0898 77.5459 26.9194 75.5786 26.9194L69.7515 26.9194C67.7842 26.9194 66.6387 28.0898 66.6387 30.0571L66.6387 35.9092C66.6387 37.8765 67.7842 39.022 69.7515 39.022ZM89.6484 39.022L95.4756 39.022C97.4429 39.022 98.6133 37.8765 98.6133 35.9092L98.6133 30.0571C98.6133 28.0898 97.4429 26.9194 95.4756 26.9194L89.6484 26.9194C87.6812 26.9194 86.5356 28.0898 86.5356 30.0571L86.5356 35.9092C86.5356 37.8765 87.6812 39.022 89.6484 39.022ZM109.844 39.022L115.373 39.022C117.365 39.022 118.51 37.8765 118.51 35.9092L118.51 30.0571C118.51 28.0898 117.365 26.9194 115.373 26.9194L109.844 26.9194C107.703 26.9194 106.433 28.0898 106.433 30.0571L106.433 35.9092C106.433 37.8765 107.703 39.022 109.844 39.022ZM129.442 39.022L135.27 39.022C137.262 39.022 138.407 37.8765 138.407 35.9092L138.407 30.0571C138.407 28.0898 137.262 26.9194 135.27 26.9194L129.442 26.9194C127.475 26.9194 126.33 28.0898 126.33 30.0571L126.33 35.9092C126.33 37.8765 127.475 39.022 129.442 39.022ZM29.9575 59.2178L35.8096 59.2178C37.752 59.2178 38.8975 58.0723 38.8975 56.105L38.8975 50.228C38.8975 48.2856 37.752 47.1401 35.8096 47.1401L29.9575 47.1401C28.0151 47.1401 26.8447 48.2856 26.8447 50.228L26.8447 56.105C26.8447 58.0723 28.0151 59.2178 29.9575 59.2178ZM49.8545 59.2178L55.6816 59.2178C57.6489 59.2178 58.8193 58.0723 58.8193 56.105L58.8193 50.228C58.8193 48.2856 57.6489 47.1401 55.6816 47.1401L49.8545 47.1401C47.8872 47.1401 46.7417 48.2856 46.7417 50.228L46.7417 56.105C46.7417 58.0723 47.8872 59.2178 49.8545 59.2178ZM69.7515 59.2178L75.5786 59.2178C77.5459 59.2178 78.7163 58.0723 78.7163 56.105L78.7163 50.228C78.7163 48.2856 77.5459 47.1401 75.5786 47.1401L69.7515 47.1401C67.7842 47.1401 66.6387 48.2856 66.6387 50.228L66.6387 56.105C66.6387 58.0723 67.7842 59.2178 69.7515 59.2178ZM89.6484 59.2178L95.4756 59.2178C97.4429 59.2178 98.6133 58.0723 98.6133 56.105L98.6133 50.228C98.6133 48.2856 97.4429 47.1401 95.4756 47.1401L89.6484 47.1401C87.6812 47.1401 86.5356 48.2856 86.5356 50.228L86.5356 56.105C86.5356 58.0723 87.6812 59.2178 89.6484 59.2178ZM109.844 59.2178L115.373 59.2178C117.365 59.2178 118.51 58.0723 118.51 56.105L118.51 50.228C118.51 48.2856 117.365 47.1401 115.373 47.1401L109.844 47.1401C107.703 47.1401 106.433 48.2856 106.433 50.228L106.433 56.105C106.433 58.0723 107.703 59.2178 109.844 59.2178ZM129.442 59.2178L135.27 59.2178C137.262 59.2178 138.407 58.0723 138.407 56.105L138.407 50.228C138.407 48.2856 137.262 47.1401 135.27 47.1401L129.442 47.1401C127.475 47.1401 126.33 48.2856 126.33 50.228L126.33 56.105C126.33 58.0723 127.475 59.2178 129.442 59.2178ZM29.9575 79.4385L35.8096 79.4385C37.752 79.4385 38.8975 78.2681 38.8975 76.3008L38.8975 70.4238C38.8975 68.4814 37.752 67.3359 35.8096 67.3359L29.9575 67.3359C28.0151 67.3359 26.8447 68.4814 26.8447 70.4238L26.8447 76.3008C26.8447 78.2681 28.0151 79.4385 29.9575 79.4385ZM50.2031 79.4385L115.024 79.4385C117.215 79.4385 118.51 78.1436 118.51 75.9521L118.51 70.7974C118.51 68.5811 117.215 67.3359 115.024 67.3359L50.2031 67.3359C48.0117 67.3359 46.7417 68.5811 46.7417 70.7974L46.7417 75.9521C46.7417 78.1436 48.0117 79.4385 50.2031 79.4385ZM129.442 79.4385L135.27 79.4385C137.262 79.4385 138.407 78.2681 138.407 76.3008L138.407 70.4238C138.407 68.4814 137.262 67.3359 135.27 67.3359L129.442 67.3359C127.475 67.3359 126.33 68.4814 126.33 70.4238L126.33 76.3008C126.33 78.2681 127.475 79.4385 129.442 79.4385Z" fill="#55bef0"/>
 </g>
</svg>
